<svg width="100" height="100" viewBox="0 0 100 100" fill="none" xmlns="http://www.w3.org/2000/svg">
<circle cx="50" cy="50" r="50" fill="#212121"/>
<path d="M30.5556 69.4444H34.5139L61.6667 42.2917L57.7083 38.3333L30.5556 65.4861V69.4444ZM25 75V63.1944L61.6667 26.5972C62.2222 26.088 62.8357 25.6944 63.5069 25.4167C64.1782 25.1389 64.8843 25 65.625 25C66.3657 25 67.0833 25.1389 67.7778 25.4167C68.4722 25.6944 69.0741 26.1111 69.5833 26.6667L73.4028 30.5556C73.9583 31.0648 74.3634 31.6667 74.6181 32.3611C74.8727 33.0556 75 33.75 75 34.4444C75 35.1852 74.8727 35.8912 74.6181 36.5625C74.3634 37.2338 73.9583 37.8472 73.4028 38.4028L36.8056 75H25ZM59.6528 40.3472L57.7083 38.3333L61.6667 42.2917L59.6528 40.3472Z" fill="white"/>
</svg>
