<svg width="50" height="50" viewBox="0 0 50 50" fill="none" xmlns="http://www.w3.org/2000/svg">
<rect width="50" height="50" rx="12" fill="#CA010C"/>
<path d="M17.3717 15.6154C17.7967 15.6154 18.2043 15.4465 18.5048 15.146C18.8054 14.8455 18.9742 14.4378 18.9742 14.0128C18.9742 13.5878 18.8054 13.1802 18.5048 12.8796C18.2043 12.5791 17.7967 12.4103 17.3717 12.4103H14.1665C13.7415 12.4103 13.3339 12.5791 13.0333 12.8796C12.7328 13.1802 12.564 13.5878 12.564 14.0128V36.4487C12.564 36.8737 12.7328 37.2814 13.0333 37.5819C13.3339 37.8824 13.7415 38.0513 14.1665 38.0513H17.3717C17.7967 38.0513 18.2043 37.8824 18.5048 37.5819C18.8054 37.2814 18.9742 36.8737 18.9742 36.4487C18.9742 36.0237 18.8054 35.6161 18.5048 35.3155C18.2043 35.015 17.7967 34.8462 17.3717 34.8462H15.7691V15.6154H17.3717Z" fill="white"/>
<path d="M39.519 24.3013L34.9997 17.891C34.7546 17.5456 34.3827 17.3111 33.9653 17.2391C33.5479 17.167 33.1189 17.2631 32.7722 17.5064C32.5989 17.6279 32.4513 17.7825 32.338 17.9612C32.2248 18.14 32.1481 18.3395 32.1123 18.5481C32.0765 18.7567 32.0825 18.9703 32.1297 19.1766C32.1769 19.3829 32.2646 19.5778 32.3876 19.75L35.144 23.6282H34.9997H22.1792C21.7542 23.6282 21.3466 23.7971 21.046 24.0976C20.7455 24.3981 20.5767 24.8058 20.5767 25.2308C20.5767 25.6558 20.7455 26.0634 21.046 26.364C21.3466 26.6645 21.7542 26.8334 22.1792 26.8334H34.9997L32.1151 30.6795C31.9889 30.8479 31.897 31.0394 31.8447 31.2433C31.7925 31.4472 31.781 31.6593 31.8107 31.8677C31.8405 32.076 31.911 32.2764 32.0182 32.4575C32.1254 32.6386 32.2673 32.7968 32.4356 32.9231C32.713 33.1311 33.0504 33.2436 33.3972 33.2436C33.646 33.2436 33.8913 33.1857 34.1139 33.0744C34.3364 32.9632 34.5299 32.8016 34.6792 32.6026L39.4869 26.1923C39.6922 25.9213 39.8059 25.592 39.8116 25.252C39.8174 24.9121 39.7149 24.5791 39.519 24.3013Z" fill="white"/>
</svg>
